Coordinates
version=1
nRows=21
nColumns=22
inDegrees=yes

Units are S.I. units (second, meters, Newtons, ...)
If the header above contains a line with 'inDegrees', this indicates whether rotational values are in degrees (yes) or radians (no).

endheader
time	pelvis_tilt	pelvis_list	pelvis_rotation	pelvis_tx	pelvis_ty	pelvis_tz	hip_flexion_r	hip_adduction_r	hip_rotation_r	knee_angle_r	ankle_angle_r	subtalar_angle_r	hip_flexion_l	hip_adduction_l	hip_rotation_l	knee_angle_l	ankle_angle_l	subtalar_angle_l	lumbar_extension	lumbar_bending	lumbar_rotation
      0.01000000	      3.28507222	      1.04850241	      8.15403850	      0.13674980	      1.09066687	      1.17525361	     -3.44787818	      1.39147888	     -7.82414225	    -11.75604256	     13.07324003	     -1.60522479	     -3.25940379	      0.96342181	      6.49033290	    -10.98244328	     10.66632994	     -4.65670961	     -2.97572014	     -1.28033528	     -4.34275951
      0.02000000	      3.24461940	      1.02164846	      8.09549024	      0.13671353	      1.09061111	      1.17513799	     -3.38319099	      1.39459930	     -7.82354815	    -11.77611787	     13.06968943	     -1.58458186	     -3.20617823	      0.95663216	      6.42934942	    -11.00144528	     10.66380219	     -4.67706451	     -2.94211898	     -1.27584191	     -4.32281391
      0.03000000	      3.22913501	      0.99811262	      8.05425376	      0.13673522	      1.09058231	      1.17496366	     -3.35635162	      1.40008169	     -7.81972747	    -11.78637766	     13.06596694	     -1.57887205	     -3.19567460	      0.94954943	      6.40477298	    -10.99571431	     10.67594620	     -4.68272809	     -2.93357106	     -1.27340640	     -4.35322245
      0.04000000	      3.18549334	      0.95512443	      7.99532022	      0.13675888	      1.09049401	      1.17478416	     -3.28578301	      1.41879157	     -7.78897375	    -11.81582273	     13.06746012	     -1.55485500	     -3.12778456	      0.92947086	      6.33102269	    -11.04020011	     10.70780504	     -4.70351482	     -2.89056702	     -1.25493858	     -4.34102986
      0.05000000	      3.17816755	      0.93800947	      7.95899874	      0.13684982	      1.09046236	      1.17455617	     -3.26594394	      1.41753317	     -7.77222401	    -11.84197368	     13.06751461	     -1.55113332	     -3.12886271	      0.93041003	      6.31904845	    -11.03882555	     10.71609133	     -4.70713336	     -2.88728948	     -1.26347212	     -4.37966666
      0.06000000	      3.17239583	      0.91969934	      7.91833802	      0.13696295	      1.09042127	      1.17432249	     -3.24363919	      1.41668301	     -7.74628406	    -11.87775177	     13.07613883	     -1.54580466	     -3.12739814	      0.93035403	      6.29138417	    -11.04849693	     10.73250587	     -4.71382199	     -2.88539700	     -1.26989784	     -4.41344316
      0.07000000	      3.15344265	      0.89953903	      7.85151112	      0.13709248	      1.09034748	      1.17411794	     -3.20144034	      1.41406361	     -7.68595249	    -11.92350277	     13.11416754	     -1.52818536	     -3.10220671	      0.93212924	      6.21382279	    -11.08037809	     10.77268360	     -4.73317269	     -2.86611571	     -1.27646111	     -4.40122259
      0.08000000	      3.15172246	      0.88419729	      7.81456730	      0.13725572	      1.09030988	      1.17387862	     -3.18599644	      1.41138617	     -7.65687653	    -11.96158751	     13.11508380	     -1.52485954	     -3.11325883	      0.93377445	      6.19744843	    -11.07924444	     10.78228747	     -4.73673247	     -2.86427942	     -1.28567873	     -4.44007604
      0.09000000	      3.14927867	      0.87301644	      7.74507019	      0.13741953	      1.09025750	      1.17368048	     -3.16230496	      1.40206495	     -7.58372191	    -12.01182166	     13.15842569	     -1.51193879	     -3.11621506	      0.94194057	      6.12605555	    -11.09794972	     10.81856931	     -4.75048236	     -2.86214970	     -1.29823935	     -4.43023716
      0.10000000	      3.15175628	      0.85974212	      7.70480918	      0.13760100	      1.09022296	      1.17346325	     -3.14935570	      1.39897147	     -7.54493616	    -12.05562866	     13.16423922	     -1.50844793	     -3.13318631	      0.94390520	      6.10469986	    -11.09695974	     10.83166426	     -4.75407381	     -2.86457601	     -1.30906950	     -4.46556446
      0.11000000	      3.16033421	      0.85391003	      7.62880430	      0.13779122	      1.09018259	      1.17328546	     -3.13903224	      1.38674344	     -7.45743313	    -12.10647562	     13.21591208	     -1.49708925	     -3.15424987	      0.95545686	      6.03432754	    -11.10962623	     10.87045848	     -4.76521681	     -2.87370845	     -1.32415589	     -4.44631703
      0.12000000	      3.17117131	      0.84706589	      7.56725964	      0.13799077	      1.09015019	      1.17310561	     -3.13194909	      1.37821440	     -7.38221949	    -12.15769762	     13.24543555	     -1.48911047	     -3.18208378	      0.96339883	      5.99069774	    -11.11281471	     10.89380208	     -4.77151413	     -2.88522028	     -1.33895332	     -4.45145449
      0.13000000	      3.17891254	      0.83707102	      7.52830062	      0.13820575	      1.09011707	      1.17288014	     -3.12393875	      1.37238763	     -7.34250678	    -12.20665639	     13.25288555	     -1.48808942	     -3.20668594	      0.96875243	      5.98229098	    -11.11523002	     10.90756376	     -4.77367053	     -2.88922759	     -1.34415273	     -4.49457685
      0.14000000	      3.20269667	      0.84143460	      7.45986770	      0.13844259	      1.09008490	      1.17272607	     -3.12772432	      1.35620331	     -7.23720452	    -12.27283525	     13.32634883	     -1.48310573	     -3.25059997	      0.98564616	      5.92558097	    -11.12233425	     10.95598447	     -4.78234357	     -2.91283992	     -1.37266653	     -4.48017374
      0.15000000	      3.22513702	      0.84279354	      7.40064793	      0.13869124	      1.09005675	      1.17255573	     -3.13000313	      1.34301536	     -7.14997528	    -12.33864203	     13.36691072	     -1.48167319	     -3.29434849	      0.99945898	      5.88515293	    -11.12570309	     10.98219257	     -4.78592365	     -2.93382970	     -1.39386925	     -4.49007039
      0.16000000	      3.24621027	      0.84363563	      7.34879774	      0.13895356	      1.09002380	      1.17237714	     -3.13073068	      1.33090577	     -7.07165908	    -12.40685990	     13.40916230	     -1.48419577	     -3.33549837	      1.01285232	      5.85339991	    -11.13125781	     11.01320680	     -4.78928671	     -2.95155282	     -1.41410773	     -4.51208062
      0.17000000	      3.26600429	      0.84533422	      7.29637207	      0.13923647	      1.08998481	      1.17220404	     -3.13065092	      1.31813037	     -6.99541351	    -12.47629457	     13.45322190	     -1.48998455	     -3.37465376	      1.02724593	      5.81879085	    -11.14014993	     11.04533640	     -4.79248887	     -2.96492133	     -1.43433296	     -4.53421034
      0.18000000	      3.27595014	      0.83819170	      7.25875978	      0.13953152	      1.08994150	      1.17200791	     -3.12365752	      1.31322586	     -6.95184231	    -12.53719571	     13.46262183	     -1.49270316	     -3.40312585	      1.03365769	      5.80906908	    -11.14651299	     11.06133599	     -4.79411782	     -2.96454387	     -1.44109213	     -4.58756952
      0.19000000	      3.29394334	      0.84358504	      7.19756335	      0.13983456	      1.08988856	      1.17187963	     -3.12329517	      1.29816730	     -6.86428575	    -12.60676275	     13.54102831	     -1.50446405	     -3.43547643	      1.05089284	      5.75270949	    -11.16776543	     11.11658492	     -4.80020230	     -2.97681313	     -1.46940622	     -4.59355338
      0.20000000	      3.30196933	      0.83686775	      7.16024761	      0.14016133	      1.08984123	      1.17172978	     -3.11842750	      1.29620015	     -6.81707765	    -12.66436374	     13.55868631	     -1.50951461	     -3.46191255	      1.05449934	      5.72803169	    -11.17515870	     11.13705924	     -4.80159063	     -2.97222268	     -1.48242632	     -4.63756879
      0.21000000	      3.30890855	      0.83097625	      7.11537033	      0.14050045	      1.08978892	      1.17159680	     -3.11558743	      1.29255442	     -6.76876270	    -12.71567265	     13.59805019	     -1.51373958	     -3.48528151	      1.05972133	      5.69823923	    -11.19064848	     11.17112296	     -4.80440714	     -2.96730382	     -1.49223149	     -4.67925400
